# xmcd
#
# Track frame offsets: 
#        150
#        22396
#        44464
#        59563
#        82990
#        102511
#        130354
#        149655
#        184618
#        207268
#
# Disc length: 3013 seconds
#
# Revision: 6
# Processed by: cddbd v1.5.2PL0 Copyright (c) Steve Scherf et al.
# Submitted via: ExactAudioCopy v1.3
#
DISCID=9b0bc30a
DTITLE=Wynonna Judd - Revelations
DYEAR=1996
DGENRE=Country
TTITLE0=To Be Loved By You
TTITLE1=Somebody To Love You
TTITLE2=Change The World
TTITLE3=Don't Look Back
TTITLE4=Old Enough To Know Better
TTITLE5=Heaven Help My Heart
TTITLE6=Love By Grace
TTITLE7=Free Bird
TTITLE8=My Angel Is Here
TTITLE9=Dance! Shout!
EXTD=
EXTT0=
EXTT1=
EXTT2=
EXTT3=
EXTT4=
EXTT5=
EXTT6=
EXTT7=
EXTT8=
EXTT9=
PLAYORDER=
